<?xml version="1.0" encoding="utf-8"?>
<!-- Generator: Adobe Illustrator 17.0.0, SVG Export Plug-In . SVG Version: 6.00 Build 0)  -->
<!DOCTYPE svg PUBLIC "-//W3C//DTD SVG 1.1//EN" "http://www.w3.org/Graphics/SVG/1.1/DTD/svg11.dtd">
<svg version="1.1" id="Layer_1" xmlns="http://www.w3.org/2000/svg" xmlns:xlink="http://www.w3.org/1999/xlink" x="0px" y="0px"
	 width="64px" height="64px" viewBox="0 0 64 64" enable-background="new 0 0 64 64" xml:space="preserve">
<rect x="24.471" y="38.574" transform="matrix(-0.7071 0.7071 -0.7071 -0.7071 88.0765 56.4274)" fill="#ABD592" stroke="#70BF45" stroke-width="9" stroke-miterlimit="10" width="15.761" height="15.761"/>
<circle fill="#ABD592" stroke="#70BF45" stroke-width="9" stroke-miterlimit="10" cx="32" cy="29.2" r="22.8"/>
<circle fill="#C75C5C" cx="41.975" cy="22.787" r="1.425"/>
<circle fill="#C75C5C" cx="49.1" cy="29.913" r="1.425"/>
<path fill="#4167B1" d="M41.975,34.187c0,1.574,0,2.85,0,2.85h-22.8c-1.574,0-2.85-1.276-2.85-2.85V23.5
	c0-1.574,1.276-2.85,2.85-2.85H40.55c1.574,0,1.425,1.276,1.425,2.85V34.187z"/>
<path fill="#4167B1" d="M49.098,34.187c0,0,0.178,2.85-2.85,2.85h-5.7c0,0,0-1.276,0-2.85v-3.562c0-1.574,0-2.85,0-2.85h6.414
	c1.425,0,2.135,0.56,2.135,2.134L49.098,34.187L49.098,34.187z"/>
<rect x="19.887" y="23.5" fill="#E0995E" width="12.825" height="4.275"/>
<rect x="35.562" y="23.5" fill="#E0995E" width="3.562" height="4.275"/>
<rect x="19.175" y="23.5" fill="#E0995E" width="3.562" height="4.275"/>
<circle fill="#E0E0D1" stroke="#4F5D73" stroke-width="2" stroke-miterlimit="10" cx="22.738" cy="37.038" r="2.85"/>
<circle fill="#E0E0D1" stroke="#4F5D73" stroke-width="2" stroke-miterlimit="10" cx="42.687" cy="37.038" r="2.85"/>
</svg>
