<?xml version="1.0" encoding="utf-8"?>
<!-- Generator: Adobe Illustrator 24.0.2, SVG Export Plug-In . SVG Version: 6.00 Build 0)  -->
<svg version="1.1" id="Layer_1" xmlns="http://www.w3.org/2000/svg" xmlns:xlink="http://www.w3.org/1999/xlink" x="0px" y="0px"
	 viewBox="0 0 64 64" style="enable-background:new 0 0 64 64;" xml:space="preserve">
<style type="text/css">
	.st0{fill:#DCDCDC;}
	.st1{fill:#ECE4CF;}
	.st2{fill:#3A4D39;}
	.st3{fill:#739072;}
	.st4{fill:#E0E0D1;stroke:#4F5D73;stroke-width:2;stroke-miterlimit:10;}
</style>
<circle class="st0" cx="32" cy="32.5" r="28.5"/>
<circle class="st1" cx="44.5" cy="24.5" r="1.8"/>
<circle class="st1" cx="53.4" cy="33.4" r="1.8"/>
<path class="st2" d="M44.5,38.7c0,2,0,3.6,0,3.6H16c-2,0-3.6-1.6-3.6-3.6V25.4c0-2,1.6-3.6,3.6-3.6h26.7c2,0,1.8,1.6,1.8,3.6V38.7z"
	/>
<path class="st2" d="M53.4,38.7c0,0,0.2,3.6-3.6,3.6h-7.1c0,0,0-1.6,0-3.6v-4.5c0-2,0-3.6,0-3.6h8c1.8,0,2.7,0.7,2.7,2.7L53.4,38.7
	L53.4,38.7z"/>
<rect x="16.9" y="25.4" class="st3" width="16" height="5.3"/>
<rect x="36.5" y="25.4" class="st3" width="4.5" height="5.3"/>
<rect x="16" y="25.4" class="st3" width="4.5" height="5.3"/>
<circle class="st4" cx="20.4" cy="42.3" r="3.6"/>
<circle class="st4" cx="45.4" cy="42.3" r="3.6"/>
</svg>
